<svg width="39" height="52" viewBox="0 0 39 52" fill="none" xmlns="http://www.w3.org/2000/svg">
<path d="M30.1317 1.9111C31.7701 1.91279 33.3408 2.56436 34.4993 3.72282C35.6577 4.88129 36.3093 6.45202 36.311 8.09034V43.7643C36.3093 45.4026 35.6577 46.9733 34.4993 48.1318C33.3408 49.2903 31.7701 49.9418 30.1317 49.9435H8.09034C7.27696 49.9427 6.47173 49.7814 5.72075 49.469C4.96976 49.1566 4.28777 48.6991 3.71381 48.1228C3.13984 47.5465 2.68518 46.8626 2.37585 46.1103C2.06652 45.3581 1.90859 44.5522 1.9111 43.7388V8.06486C1.91952 6.43096 2.57405 4.86676 3.73179 3.7138C4.88953 2.56083 6.45642 1.91277 8.09034 1.9111H30.1317ZM30.1317 0H8.09034C5.94517 0.00168712 3.88834 0.854602 2.37147 2.37147C0.854602 3.88834 0.00168712 5.94517 0 8.09034L0 43.7643C0.00168712 45.9095 0.854602 47.9663 2.37147 49.4832C3.88834 51 5.94517 51.8529 8.09034 51.8546H30.1317C31.1961 51.8538 32.2498 51.6431 33.2327 51.2346C34.2155 50.8262 35.1082 50.2279 35.8596 49.4741C36.6111 48.7204 37.2065 47.8258 37.6119 46.8417C38.0172 45.8575 38.2246 44.8031 38.2221 43.7388V8.06486C38.2137 5.9241 37.3578 3.87381 35.8416 2.36245C34.3255 0.851082 32.2725 0.00166776 30.1317 0Z" fill="#FFCEA1"/>
<path d="M31.374 39.4388C31.3325 39.3952 31.2878 39.3548 31.2403 39.3178L15.4609 25.8891L31.2912 12.4158C31.3162 12.3941 31.3396 12.3707 31.3613 12.3458C31.7439 11.9969 32.0517 11.574 32.2659 11.1027C32.4802 10.6313 32.5964 10.1214 32.6076 9.60376C32.6188 9.08613 32.5247 8.57162 32.331 8.09146C32.1374 7.61129 31.8482 7.17547 31.481 6.81045C31.1138 6.44543 30.6763 6.15881 30.195 5.96799C29.7137 5.77716 29.1987 5.68611 28.6811 5.70036C28.1635 5.71461 27.6543 5.83386 27.1842 6.05087C26.7141 6.26789 26.2931 6.57814 25.9465 6.96281L7.59991 22.5765C7.03145 22.9151 6.56061 23.3954 6.23343 23.9704C5.90626 24.5455 5.73396 25.1956 5.7334 25.8573V25.9146C5.73461 26.5705 5.90461 27.2151 6.22704 27.7864C6.54947 28.3576 7.01348 28.8362 7.57443 29.1762L25.9656 44.8345C26.6908 45.4683 27.6284 45.8049 28.5911 45.7771C29.5538 45.7493 30.4704 45.3591 31.1578 44.6846C31.8452 44.0101 32.2527 43.101 32.2987 42.139C32.3446 41.1771 32.0258 40.2332 31.4059 39.4962C31.4059 39.4962 31.3868 39.4516 31.374 39.4388ZM28.6666 44.6816C28.3231 44.6798 27.9834 44.6096 27.6673 44.4751C27.3512 44.3406 27.0651 44.1444 26.8256 43.8981L10.1417 29.6858C10.9253 29.5776 11.6534 29.2202 12.2184 28.6666L14.4799 26.7555L30.3484 40.2606L30.4695 40.3625C30.8155 40.7204 31.0491 41.1719 31.1414 41.6611C31.2337 42.1503 31.1807 42.6558 30.989 43.1152C30.7972 43.5746 30.4751 43.9678 30.0624 44.2462C29.6497 44.5245 29.1644 44.6759 28.6666 44.6816Z" fill="#FFCEA1"/>
</svg>
