<svg width="39" height="52" viewBox="0 0 39 52" fill="none" xmlns="http://www.w3.org/2000/svg">
<path d="M30.3539 1.9111C31.9922 1.91279 33.563 2.56436 34.7214 3.72282C35.8799 4.88129 36.5315 6.45202 36.5331 8.09034V43.7643C36.5315 45.4026 35.8799 46.9733 34.7214 48.1318C33.563 49.2903 31.9922 49.9418 30.3539 49.9435H8.31251C7.49913 49.9427 6.6939 49.7814 5.94291 49.469C5.19193 49.1566 4.50994 48.6991 3.93597 48.1228C3.36201 47.5465 2.90735 46.8626 2.59802 46.1103C2.28869 45.3581 2.13076 44.5522 2.13327 43.7388V8.06486C2.14168 6.43096 2.79622 4.86676 3.95396 3.7138C5.1117 2.56083 6.67859 1.91277 8.31251 1.9111H30.3539ZM30.3539 0H8.31251C6.16733 0.00168712 4.1105 0.854602 2.59364 2.37147C1.07677 3.88834 0.223855 5.94517 0.222168 8.09034L0.222168 43.7643C0.223855 45.9095 1.07677 47.9663 2.59364 49.4832C4.1105 51 6.16733 51.8529 8.31251 51.8546H30.3539C31.4183 51.8538 32.472 51.6431 33.4548 51.2346C34.4377 50.8262 35.3304 50.2279 36.0818 49.4741C36.8332 48.7204 37.4287 47.8258 37.834 46.8417C38.2394 45.8575 38.4468 44.8031 38.4443 43.7388V8.06486C38.4358 5.9241 37.5799 3.87381 36.0638 2.36245C34.5477 0.851082 32.4947 0.00166776 30.3539 0Z" fill="#FFCEA1"/>
<path d="M32.711 25.9145C32.7098 25.2585 32.5398 24.6139 32.2174 24.0427C31.895 23.4715 31.4309 22.9929 30.87 22.6529L12.4788 7.00729C11.76 6.32503 10.8044 5.94861 9.8134 5.95743C8.82243 5.96624 7.87362 6.35961 7.16711 7.05456C6.46059 7.7495 6.05162 8.69169 6.02644 9.68238C6.00126 10.6731 6.36186 11.6348 7.03216 12.3648L7.06401 12.403L7.25512 12.5686L22.9835 25.9463L7.1532 39.4132L7.08312 39.4897C6.72524 39.8425 6.44121 40.263 6.24762 40.7268C6.05402 41.1905 5.95474 41.6882 5.95557 42.1907C5.95557 43.2044 6.35827 44.1766 7.07507 44.8934C7.79187 45.6102 8.76407 46.0129 9.77778 46.0129C10.2849 46.0138 10.787 45.9128 11.2543 45.7158C11.7216 45.5188 12.1445 45.2299 12.4979 44.8663H12.5298L30.8445 29.2525C31.412 28.9146 31.8823 28.4353 32.2094 27.8614C32.5365 27.2876 32.7094 26.6387 32.711 25.9782V25.9145ZM8.08964 11.5939L8.00045 11.5175H7.96223C7.60024 11.1611 7.35305 10.7046 7.2524 10.2066C7.15176 9.70867 7.20225 9.192 7.3974 8.72296C7.59255 8.25392 7.92344 7.85392 8.34759 7.57432C8.77175 7.29472 9.26979 7.14828 9.77778 7.15381C10.1212 7.15261 10.4613 7.22084 10.7777 7.3544C11.094 7.48795 11.3801 7.68408 11.6188 7.93099L28.3027 22.1432C27.5146 22.2559 26.784 22.6201 26.2196 23.1816L23.9645 25.0927L8.08964 11.5939Z" fill="#FFCEA1"/>
</svg>
