<svg xmlns="http://www.w3.org/2000/svg" viewBox="0 0 63.01 60.83"><defs><style>.cls-1{fill:#4be394;}.cls-2{fill:none;stroke:#4be394;stroke-linecap:round;stroke-linejoin:round;stroke-width:4px;}</style></defs><g id="Capa_2" data-name="Capa 2"><g id="Capa_8" data-name="Capa 8"><path class="cls-1" d="M31.46,0a6,6,0,0,0-5.13,2.89L1.76,31.76A5.93,5.93,0,0,0,0,36a6,6,0,0,0,10.17,4.31s0,0,.05-.05a3.49,3.49,0,0,0,.26-.3l21-24.69L52.65,40.12a.57.57,0,0,0,.11.11,6,6,0,1,0,8.44-8.5l0-.05L36.69,2.93A6,6,0,0,0,31.55,0h-.09ZM9,38.65a.76.76,0,0,0-.11.14l-.06.06h0A4,4,0,0,1,2,36a4.06,4.06,0,0,1,1.23-2.89L25.53,6.92a5.86,5.86,0,0,0,1.63,3.27l3,3.54Z"/><line class="cls-2" x1="51.61" y1="42.3" x2="51.61" y2="58.83"/><line class="cls-2" x1="11.61" y1="42.3" x2="11.61" y2="58.83"/></g></g></svg>