<svg width="58" height="58" viewBox="0 0 58 58" fill="none" xmlns="http://www.w3.org/2000/svg">
<path d="M38.7753 44.2636H18.4371C15.2557 44.2636 12.6992 41.6794 12.6992 38.4636V17.9051C12.6992 14.6893 15.2557 12.1051 18.4371 12.1051H38.7753C41.9567 12.1051 44.5132 14.6893 44.5132 17.9051V38.4636C44.5132 41.6794 41.9567 44.2636 38.7753 44.2636ZM28.6062 23.0735C25.8225 23.0735 23.4932 25.3705 23.4932 28.2418C23.4932 31.1131 25.7657 33.4101 28.6062 33.4101C31.4467 33.4101 33.7192 31.1131 33.7192 28.2418C33.7192 25.3705 31.3899 23.0735 28.6062 23.0735ZM40.7069 15.9527H35.5939V21.121H40.7069V15.9527ZM41.3318 24.9685H36.9574C37.355 26.0022 37.5255 27.0358 37.5255 28.1844C37.5255 33.123 33.4919 37.2002 28.6062 37.2002C23.7205 37.2002 19.6869 33.123 19.6869 28.1844C19.6869 27.0358 19.8574 26.0022 20.255 24.9685H15.8806V36.5685C15.8806 39.0952 17.869 41.0477 20.3118 41.0477H36.8437C39.3434 41.0477 41.275 39.0378 41.275 36.5685V24.9685H41.3318Z" fill="#93EEBF"/>
</svg>
