<svg xmlns="http://www.w3.org/2000/svg" viewBox="0 0 113.27 138.74"><defs><style>.cls-1{fill:#ff8515;}</style></defs><g id="Capa_2" data-name="Capa 2"><g id="Capa_4" data-name="Capa 4"><path class="cls-1" d="M48.43,2c7.32,0,22.31,2.63,32.06,12.49a28.63,28.63,0,0,1,8.33,21.24c-.3,26.8-23.93,32.55-24.93,32.78-.4.09-5.18,1-6.76,1.31l-1,.18c-7.88,1.59-22.56,4.54-25.63,21.29-2.07,11.28,11,32.26,28.55,39.74A72.87,72.87,0,0,0,87,136.57c-1.8.12-3.63.17-5.47.17-17.91,0-35-5.13-48.17-14.44C16.44,110.35,6.12,92.07,2.65,68,.08,45.85,5.07,28.47,17.48,16.33A53.21,53.21,0,0,1,44.92,2.23,24.3,24.3,0,0,1,48.43,2m0-2a26.59,26.59,0,0,0-3.8.25C33.3,1.91-5.53,15,.66,68.22c7.84,54.55,49.21,70.52,80.83,70.52,13.49,0,25.2-2.91,31.78-7a121.71,121.71,0,0,1-24.89,2.81,71.92,71.92,0,0,1-28.5-5.4c-16.74-7.11-29.24-27.28-27.36-37.53,2.74-14.94,15.44-18,24-19.69.15,0,7.28-1.39,7.77-1.5,4.17-1,26.19-8.37,26.48-34.71C91.13,8.51,62.65,0,48.43,0Z"/></g></g></svg>