<svg xmlns="http://www.w3.org/2000/svg" viewBox="0 0 113.27 138.74"><defs><style>.cls-1{fill:#4be394;opacity:0.2;}</style></defs><g id="Capa_2" data-name="Capa 2"><g id="Capa_4" data-name="Capa 4"><path class="cls-1" d="M31.79,2C49.7,2,66.81,7.13,80,16.44c16.88,12,27.2,30.23,30.67,54.34,2.56,22.12-2.43,39.49-14.83,51.63a53.21,53.21,0,0,1-27.44,14.11,24.56,24.56,0,0,1-3.52.22c-7.32,0-22.31-2.63-32.06-12.48A28.7,28.7,0,0,1,24.45,103c.3-26.8,23.93-32.54,24.94-32.77.39-.09,5.18-1,6.76-1.31l1-.19C65,67.16,79.65,64.2,82.72,47.46c2.08-11.29-11-32.26-28.55-39.74A72.6,72.6,0,0,0,26.32,2.17C28.12,2.06,30,2,31.79,2h0m0-2C18.3,0,6.58,2.91,0,7A122.49,122.49,0,0,1,24.89,4.16a72.06,72.06,0,0,1,28.5,5.4c16.75,7.11,29.25,27.28,27.37,37.53C78,62,65.31,65.05,56.7,66.78c-.14,0-7.28,1.4-7.76,1.51-4.18,1-26.19,8.36-26.49,34.7-.3,27.24,28.18,35.75,42.39,35.75a26.85,26.85,0,0,0,3.81-.24c11.33-1.67,50.15-14.76,44-68C104.77,16,63.4,0,31.78,0Z"/></g></g></svg>