<svg xmlns="http://www.w3.org/2000/svg" xmlns:xlink="http://www.w3.org/1999/xlink" viewBox="0 0 399.42 374.15"><defs><style>.cls-1{fill:url(#Degradado_sin_nombre_409);}.cls-2{fill:url(#Degradado_sin_nombre_411);}.cls-3{fill:url(#Degradado_sin_nombre_391);}.cls-4{fill:url(#Degradado_sin_nombre_400);}</style><linearGradient id="Degradado_sin_nombre_409" x1="41.49" y1="383.71" x2="295.92" y2="218.34" gradientUnits="userSpaceOnUse"><stop offset="0"/><stop offset="0.09" stop-color="#381d05"/><stop offset="0.2" stop-color="#713b09"/><stop offset="0.3" stop-color="#9c510d"/><stop offset="0.37" stop-color="#b55f0f"/><stop offset="0.42" stop-color="#bf6410"/><stop offset="0.46" stop-color="#bb6210"/><stop offset="0.51" stop-color="#af5b0f"/><stop offset="0.56" stop-color="#9a510d"/><stop offset="0.61" stop-color="#7e420b"/><stop offset="0.66" stop-color="#592f07"/><stop offset="0.71" stop-color="#2c1704"/><stop offset="0.75"/></linearGradient><linearGradient id="Degradado_sin_nombre_411" x1="155.89" y1="120.22" x2="349.04" y2="4.3" gradientUnits="userSpaceOnUse"><stop offset="0"/><stop offset="0.03" stop-color="#06110b"/><stop offset="0.11" stop-color="#17452d"/><stop offset="0.2" stop-color="#25714a"/><stop offset="0.28" stop-color="#309360"/><stop offset="0.36" stop-color="#38ab70"/><stop offset="0.43" stop-color="#3dba7a"/><stop offset="0.49" stop-color="#3fbf7d"/><stop offset="0.54" stop-color="#3cb778"/><stop offset="0.63" stop-color="#35a069"/><stop offset="0.73" stop-color="#297b51"/><stop offset="0.85" stop-color="#18482f"/><stop offset="0.99" stop-color="#020705"/><stop offset="1"/></linearGradient><linearGradient id="Degradado_sin_nombre_391" x1="-110.14" y1="394.74" x2="353.19" y2="70.31" gradientUnits="userSpaceOnUse"><stop offset="0.31" stop-color="#ff8515"/><stop offset="0.49" stop-color="#ff8515"/><stop offset="0.52" stop-color="#f28c1e"/><stop offset="0.58" stop-color="#cf9e37"/><stop offset="0.66" stop-color="#97bb5f"/><stop offset="0.76" stop-color="#4be394"/></linearGradient><linearGradient id="Degradado_sin_nombre_400" x1="121.15" y1="251.38" x2="439.23" y2="28.66" gradientUnits="userSpaceOnUse"><stop offset="0.02" stop-color="#ff8515"/><stop offset="0.1" stop-color="#d79a31"/><stop offset="0.2" stop-color="#a6b454"/><stop offset="0.3" stop-color="#7ec870"/><stop offset="0.39" stop-color="#62d784"/><stop offset="0.46" stop-color="#51e090"/><stop offset="0.52" stop-color="#4be394"/><stop offset="0.81" stop-color="#4be394"/></linearGradient></defs><g id="Capa_2" data-name="Capa 2"><g id="Capa_4" data-name="Capa 4"><path class="cls-1" d="M188.46,222.7s-52.59,25.58-91.22-4.47c-20,23.61-44,58.84,33.27,131.46,35.41,25.39,143.44,27,172.06-9.12C254.28,341.28,164.49,345.22,188.46,222.7Z"/><path class="cls-2" d="M216.72,148.94s52.58-25.58,91.22,4.47c20-23.61,44-58.84-33.27-131.46-35.41-25.4-143.44-27-172.06,9.12C150.9,30.36,240.69,26.42,216.72,148.94Z"/><path class="cls-3" d="M1.64,194C-13.65,58,82.27,24.54,110.25,20.28c29.68-4.52,115,14.13,114.13,90.71-.73,67.31-55.12,86.23-65.44,88.68-1.19.29-18.82,3.77-19.18,3.85-21.26,4.42-52.65,12.14-59.42,50.3-4.65,26.2,26.24,77.73,67.6,95.91,37.34,16.41,80.94,17.62,131.91,6.62C225.48,391.05,29.27,392.79,1.64,194Z"/><path class="cls-4" d="M397.78,180.21c15.29,136-80.63,169.41-108.61,173.67-29.68,4.51-115-14.13-114.13-90.72.72-67.31,55.11-86.22,65.43-88.68,1.2-.28,18.82-3.77,19.18-3.84,21.27-4.43,52.66-12.15,59.43-50.31,4.65-26.2-26.24-77.72-67.61-95.91C214.14,8,170.54,6.81,119.57,17.8,173.94-16.89,370.14-18.64,397.78,180.21Z"/></g></g></svg>