<svg width="390" height="122" viewBox="0 0 390 122" fill="none" xmlns="http://www.w3.org/2000/svg">
<g clip-path="url(#clip0_1266_5889)">
<path d="M59.7635 72.4156C59.7635 72.4156 43.147 80.5396 30.8591 71.0149C24.5755 78.5786 16.8956 89.7841 41.4714 112.895C52.6421 121.019 86.9923 121.44 96.0686 109.954C80.5691 110.094 52.2232 111.355 59.7635 72.4156Z" fill="url(#paint0_linear_1266_5889)"/>
<path d="M68.7001 48.8841C68.7001 48.8841 85.3166 40.7601 97.6045 50.2847C103.888 42.721 111.568 31.5155 86.9922 8.40415C75.8214 0.280151 41.4713 -0.140055 32.395 11.3456C47.8945 11.2055 76.38 9.94491 68.7001 48.8841Z" fill="url(#paint1_linear_1266_5889)"/>
<path d="M0.558469 63.311C-4.32875 20.0297 26.1116 9.38449 34.9086 7.9838C44.2642 6.58311 71.3533 12.466 71.0741 36.838C70.7948 58.2685 53.6197 64.2915 50.2685 64.9918C49.8496 65.1319 44.2642 66.2525 44.1245 66.2525C37.4221 67.6531 27.3684 70.1744 25.2738 82.2203C23.7378 90.4844 33.6519 106.872 46.7776 112.755C58.6466 117.938 72.4704 118.358 88.668 114.856C71.493 125.922 9.21583 126.482 0.558469 63.311Z" fill="url(#paint2_linear_1266_5889)"/>
<path d="M126.09 58.8289C130.977 102.11 100.537 112.755 91.7399 114.156C82.3843 115.557 55.2952 109.674 55.5745 85.3019C55.8537 63.8714 73.0288 57.8484 76.38 57.1481C76.7989 57.008 82.3843 55.8875 82.524 55.8875C89.2264 54.4868 99.2801 51.9655 101.375 39.9196C102.911 31.6556 92.9966 15.2675 79.8709 9.3846C68.002 4.20205 54.1781 3.78184 37.9805 7.28356C55.1556 -3.78188 117.293 -4.34215 126.09 58.8289Z" fill="url(#paint3_linear_1266_5889)"/>
<path d="M141.869 55.4672V3.92183C141.869 2.80128 142.846 1.8208 143.963 1.8208H203.029C204.146 1.8208 205.123 2.80128 205.123 3.92183V9.52459C205.123 10.6451 204.146 11.6256 203.029 11.6256H154.575C153.458 11.6256 152.481 12.6061 152.481 13.7267V22.6911C152.481 23.8116 153.458 24.7921 154.575 24.7921H181.804C182.921 24.7921 183.899 25.7726 183.899 26.8931V32.2158C183.899 33.3363 182.921 34.3168 181.804 34.3168H154.575C153.458 34.3168 152.481 35.2973 152.481 36.4178V45.3822C152.481 46.5028 153.458 47.4833 154.575 47.4833H199.957C201.074 47.4833 202.051 48.4637 202.051 49.5843V55.1871C202.051 56.3076 201.074 57.2881 199.957 57.2881H143.963C142.846 57.5682 141.869 56.5877 141.869 55.4672Z" fill="#4BE394"/>
<path d="M235.563 55.6073V50.0045C235.563 48.8839 236.541 47.9035 237.658 47.9035L258.184 47.7634C259.301 47.7634 260.279 46.7829 260.279 45.6624V36.698C260.279 35.5774 259.301 34.5969 258.184 34.5969H242.685C241.568 34.5969 240.59 33.6164 240.59 32.4959V26.8931C240.59 25.7726 241.568 24.7921 242.685 24.7921H258.184C259.301 24.7921 260.279 24.0918 260.279 22.9712V13.7267C260.279 12.6061 259.301 11.6256 258.184 11.6256H248.55C247.432 11.6256 246.455 10.6451 246.455 9.52459V3.92183C246.455 2.80128 247.432 1.8208 248.55 1.8208H268.797C269.914 1.8208 270.891 2.80128 270.891 3.92183V55.4672C270.891 56.5877 269.914 57.5682 268.797 57.5682L237.658 57.7083C236.541 57.7083 235.563 56.7278 235.563 55.6073Z" fill="#4BE394"/>
<path d="M273.824 28.7141C273.824 11.6257 276.198 0 292.814 0C303.147 0 309.012 4.4822 311.944 11.9059C312.503 13.3065 311.944 14.7072 310.687 15.4076L306.079 17.7887C304.543 18.6292 302.728 17.7887 302.17 16.248C300.634 12.186 298.399 9.80482 292.674 9.80482C282.481 9.80482 283.738 17.5086 283.738 28.5741C283.738 39.6395 282.341 47.3433 292.954 47.3433C299.098 47.3433 301.611 44.822 303.287 39.7796C303.845 38.2388 305.66 37.3984 307.196 38.0987L311.665 40.1998C312.921 40.9001 313.62 42.3008 313.061 43.7015C309.57 52.946 304.124 57.1481 293.373 57.1481C276.198 57.5683 273.824 45.8025 273.824 28.7141Z" fill="#4BE394"/>
<path d="M331.213 55.4672V13.8667C331.213 12.7462 330.236 11.7657 329.119 11.7657H317.389C316.272 11.7657 315.295 10.7852 315.295 9.66466V3.92183C315.295 2.80128 316.272 1.8208 317.389 1.8208H387.346C388.464 1.8208 389.441 2.80128 389.441 3.92183V9.66466C389.441 10.7852 388.464 11.7657 387.346 11.7657H344.06C342.943 11.7657 341.965 12.7462 341.965 13.8667V55.4672C341.965 56.5877 340.988 57.5682 339.871 57.5682H333.447C332.191 57.5682 331.213 56.5877 331.213 55.4672Z" fill="#4BE394"/>
<path d="M345.456 35.7175C345.456 22.8312 355.091 14.0068 367.518 14.0068C380.086 14.0068 389.581 22.8312 389.581 35.7175C389.581 48.6039 380.086 57.4282 367.518 57.4282C355.091 57.5683 345.456 48.7439 345.456 35.7175ZM381.203 35.7175C381.203 27.3134 375.478 21.4305 367.518 21.4305C359.699 21.4305 353.834 27.3134 353.834 35.7175C353.834 44.1216 359.699 50.0045 367.518 50.0045C375.478 50.0045 381.203 44.1216 381.203 35.7175Z" fill="#4BE394"/>
<path d="M207.357 120.459L204.983 113.456C204.704 112.755 204.146 112.335 203.447 112.335H189.205C188.507 112.335 187.808 112.755 187.669 113.456L185.295 120.459C185.016 121.16 184.457 121.58 183.759 121.58H178.453C177.336 121.58 176.498 120.459 176.917 119.339L191.16 79.1389C191.439 78.4385 191.997 78.0183 192.696 78.0183H199.957C200.655 78.0183 201.213 78.4385 201.493 79.1389L215.735 119.339C216.154 120.459 215.316 121.58 214.199 121.58H208.893C208.195 121.58 207.497 121.16 207.357 120.459ZM194.79 91.605L191.299 102.67C191.02 103.791 191.718 104.771 192.835 104.771H199.957C201.074 104.771 201.912 103.651 201.493 102.67L197.862 91.605C197.304 90.0642 195.209 90.0642 194.79 91.605Z" fill="#FF8515"/>
<path d="M306.358 89.644H324.79C325.907 89.644 326.885 90.6245 326.885 91.745V91.8851C326.885 110.094 324.93 121.58 307.476 121.58C289.882 121.58 286.81 109.814 286.81 92.4454C286.81 75.2169 287.089 63.311 303.985 63.311C314.457 63.311 322.835 65.4121 326.047 75.6371C326.466 76.7576 326.187 78.0183 325.07 78.5785L318.926 80.9597C317.948 81.52 316.552 81.0998 316.133 80.1193C314.318 75.9172 310.408 73.396 306.498 73.396C296.165 73.396 297.143 81.2399 297.143 92.4454C297.143 103.651 295.607 111.495 307.336 111.495C315.155 111.495 315.295 105.612 316.412 101.41C316.831 100.009 315.714 98.7485 314.318 98.7485H305.94C304.822 98.7485 303.845 97.768 303.845 96.6474V91.745C304.124 90.4844 305.102 89.644 306.358 89.644Z" fill="#FF8515"/>
<path d="M240.59 1.68091H211.128C210.01 1.68091 209.033 2.66139 209.033 3.78194V63.1711C209.033 64.2917 208.056 65.2722 206.938 65.2722H144.242C143.125 65.2722 142.148 66.2527 142.148 67.3732V73.116C142.148 74.2366 143.125 75.2171 144.242 75.2171H155.972C157.089 75.2171 158.066 76.1976 158.066 77.3181V119.059C158.066 120.179 159.044 121.16 160.161 121.16H166.584C167.701 121.16 168.679 120.179 168.679 119.059V77.4582C168.679 76.3376 169.656 75.3571 170.773 75.3571H217.69C218.807 75.3571 219.785 74.3767 219.785 73.2561V69.6143C219.785 69.4743 219.785 69.3342 219.785 69.1941V36.5581C219.785 35.4375 220.762 34.457 221.879 34.457H232.631C233.748 34.457 234.726 33.4765 234.726 32.356V27.4536C234.726 25.9128 233.469 24.6522 231.933 24.6522H221.879C220.762 24.6522 219.785 23.6717 219.785 22.5512V13.8669C219.785 12.7464 220.762 11.7659 221.879 11.7659H240.59C241.708 11.7659 242.685 10.7854 242.685 9.66483V3.92201C242.685 2.66139 241.708 1.68091 240.59 1.68091Z" fill="#FF8515"/>
<path d="M236.401 80.6796C235.983 80.1193 235.424 79.5591 235.145 79.5591C234.447 79.5591 234.167 80.1193 234.167 81.0998L234.307 117.938C234.307 120.459 232.911 122 230.258 122H224.533C223.415 122 222.438 121.019 222.438 119.899V76.3375C222.438 67.6532 225.231 65.4121 232.492 65.4121C237.798 65.4121 238.915 66.8128 245.059 75.0769L269.495 106.312C269.635 106.452 269.774 106.592 269.774 106.732C270.472 107.433 270.752 107.853 271.031 107.853C271.729 107.853 271.869 107.293 271.869 106.312L271.729 69.4741C271.729 66.9529 273.125 65.4121 275.778 65.4121H281.504C282.621 65.4121 283.598 66.3926 283.598 67.5131V111.075C283.598 119.759 280.805 122 273.544 122C268.238 122 268.099 120.179 261.117 112.335L260.977 112.195" fill="#FF8515"/>
<path d="M330.096 92.3054C330.096 74.6568 343.222 62.6108 360.118 62.6108C377.153 62.6108 390.139 74.6568 390.139 92.3054C390.139 109.954 377.293 122 360.118 122C343.082 122 330.096 109.954 330.096 92.3054ZM378.549 92.3054C378.549 80.9599 370.73 72.9759 359.978 72.9759C349.366 72.9759 341.407 80.9599 341.407 92.3054C341.407 103.651 349.366 111.635 359.978 111.635C370.87 111.775 378.549 103.791 378.549 92.3054Z" fill="#FF8515"/>
</g>
<defs>
<linearGradient id="paint0_linear_1266_5889" x1="13.1545" y1="123.606" x2="93.9763" y2="71.2367" gradientUnits="userSpaceOnUse">
<stop/>
<stop offset="0.0946223" stop-color="#381D05"/>
<stop offset="0.2041" stop-color="#713B09"/>
<stop offset="0.2979" stop-color="#9C510D"/>
<stop offset="0.3713" stop-color="#B55F0F"/>
<stop offset="0.4151" stop-color="#BF6410"/>
<stop offset="0.4625" stop-color="#BB6210"/>
<stop offset="0.5107" stop-color="#AF5B0F"/>
<stop offset="0.5594" stop-color="#9A510D"/>
<stop offset="0.6084" stop-color="#7E420B"/>
<stop offset="0.6576" stop-color="#592F07"/>
<stop offset="0.7063" stop-color="#2C1704"/>
<stop offset="0.7482"/>
</linearGradient>
<linearGradient id="paint1_linear_1266_5889" x1="49.4292" y1="39.8009" x2="110.771" y2="3.09982" gradientUnits="userSpaceOnUse">
<stop/>
<stop offset="0.0253129" stop-color="#06110B"/>
<stop offset="0.1127" stop-color="#17452D"/>
<stop offset="0.1984" stop-color="#25714A"/>
<stop offset="0.2807" stop-color="#309360"/>
<stop offset="0.3584" stop-color="#38AB70"/>
<stop offset="0.43" stop-color="#3DBA7A"/>
<stop offset="0.4895" stop-color="#3FBF7D"/>
<stop offset="0.5431" stop-color="#3CB778"/>
<stop offset="0.6275" stop-color="#35A069"/>
<stop offset="0.7322" stop-color="#297B51"/>
<stop offset="0.8532" stop-color="#18482F"/>
<stop offset="0.9864" stop-color="#020705"/>
<stop offset="1"/>
</linearGradient>
<linearGradient id="paint2_linear_1266_5889" x1="-34.9211" y1="127.113" x2="112.285" y2="24.3575" gradientUnits="userSpaceOnUse">
<stop offset="0.3103" stop-color="#FF8515"/>
<stop offset="0.4898" stop-color="#FF8515"/>
<stop offset="0.5219" stop-color="#F28C1E"/>
<stop offset="0.5816" stop-color="#CF9E37"/>
<stop offset="0.6624" stop-color="#97BB5F"/>
<stop offset="0.7587" stop-color="#4BE394"/>
</linearGradient>
<linearGradient id="paint3_linear_1266_5889" x1="38.4122" y1="81.5181" x2="139.473" y2="10.9737" gradientUnits="userSpaceOnUse">
<stop offset="0.0241708" stop-color="#FF8515"/>
<stop offset="0.0968115" stop-color="#D79A31"/>
<stop offset="0.2002" stop-color="#A6B454"/>
<stop offset="0.2979" stop-color="#7EC870"/>
<stop offset="0.3871" stop-color="#62D784"/>
<stop offset="0.4649" stop-color="#51E090"/>
<stop offset="0.5227" stop-color="#4BE394"/>
<stop offset="0.8065" stop-color="#4BE394"/>
</linearGradient>
<clipPath id="clip0_1266_5889">
<rect width="390" height="122" fill="white"/>
</clipPath>
</defs>
</svg>
