<svg xmlns="http://www.w3.org/2000/svg" viewBox="0 0 439.33 215.33"><defs><style>.cls-1{fill:#4be394;}.cls-2{fill:#ff8515;}</style></defs><g id="Capa_2" data-name="Capa 2"><g id="Capa_4" data-name="Capa 4"><path class="cls-1" d="M0,97.81v-91A3.75,3.75,0,0,1,3.75,3.07H108.43a3.75,3.75,0,0,1,3.75,3.75v9.93a3.75,3.75,0,0,1-3.75,3.76H22.59a3.75,3.75,0,0,0-3.76,3.75V40.19A3.76,3.76,0,0,0,22.59,44h48.3a3.75,3.75,0,0,1,3.75,3.75v9.37a3.75,3.75,0,0,1-3.75,3.76H22.59a3.75,3.75,0,0,0-3.76,3.75V80.37a3.76,3.76,0,0,0,3.76,3.76h80.3a3.75,3.75,0,0,1,3.76,3.75v9.93a3.76,3.76,0,0,1-3.76,3.76H3.75A3.75,3.75,0,0,1,0,97.81Z"/><path class="cls-1" d="M166,98.09V88.15a3.75,3.75,0,0,1,3.72-3.75L206,84.15a3.75,3.75,0,0,0,3.72-3.75V64.58A3.75,3.75,0,0,0,206,60.83H178.5a3.76,3.76,0,0,1-3.76-3.76V47.14a3.76,3.76,0,0,1,3.76-3.75H206c2.07,0,3.75-1.12,3.75-3.2V24.26A3.75,3.75,0,0,0,206,20.51H188.9a3.75,3.75,0,0,1-3.75-3.76V6.82a3.75,3.75,0,0,1,3.75-3.75h35.89a3.75,3.75,0,0,1,3.76,3.75v91a3.75,3.75,0,0,1-3.74,3.75l-55.05.27A3.76,3.76,0,0,1,166,98.09Z"/><path class="cls-1" d="M233.69,50.78C233.69,20.65,237.81,0,267.25,0,285.59,0,296,7.86,301.14,21.12a5,5,0,0,1-2.29,6.23l-8.13,4.3a5,5,0,0,1-7-2.76c-2.61-7.24-6.57-11.31-16.75-11.31-18,0-15.86,13.67-15.86,33.2S248.69,84,267.53,84c10.9,0,15.43-4.57,18.31-13.36a5,5,0,0,1,6.87-2.86l7.83,3.82A5,5,0,0,1,303,77.77c-6.2,16.25-15.89,23.8-34.95,23.8C237.81,101.57,233.69,80.92,233.69,50.78Z"/><path class="cls-1" d="M335.31,97.81V24.4a3.75,3.75,0,0,0-3.75-3.75H310.88a3.75,3.75,0,0,1-3.75-3.76V6.82a3.75,3.75,0,0,1,3.75-3.75H434.76a3.75,3.75,0,0,1,3.75,3.75V16.89a3.75,3.75,0,0,1-3.75,3.76H358a3.75,3.75,0,0,0-3.75,3.75V97.81a3.76,3.76,0,0,1-3.76,3.76H339.07A3.76,3.76,0,0,1,335.31,97.81Z"/><path class="cls-1" d="M363.7,64.67c0-21.9,16.32-36.9,37.41-36.9,21.28,0,37.4,15,37.4,36.9s-16.12,36.9-37.4,36.9C380,101.57,363.7,86.56,363.7,64.67Zm60.62,0c0-14.19-9.73-24.13-23.21-24.13-13.28,0-23.21,9.94-23.21,24.13s9.93,24.12,23.21,24.12C414.59,88.79,424.32,78.86,424.32,64.67Z"/><path class="cls-2" d="M115.89,212.61l-4.12-12.36a2.89,2.89,0,0,0-2.74-2H83.71a2.89,2.89,0,0,0-2.74,2l-4.12,12.36a2.9,2.9,0,0,1-2.75,2H64.73A2.89,2.89,0,0,1,62,210.73l25.25-69.2A2.9,2.9,0,0,1,90,139.61h12.88a2.89,2.89,0,0,1,2.73,1.93l25.15,69.19a2.89,2.89,0,0,1-2.73,3.86h-9.38A2.89,2.89,0,0,1,115.89,212.61ZM93.57,161.77,87.3,181.33a2.89,2.89,0,0,0,2.75,3.78h12.62a2.89,2.89,0,0,0,2.75-3.79l-6.34-19.56A2.9,2.9,0,0,0,93.57,161.77Z"/><path class="cls-2" d="M291.12,158.15h32.73a3.75,3.75,0,0,1,3.75,3.76v.2c0,32-3.45,52.37-34.36,52.37-31.06,0-36.53-20.89-36.53-51.39s.61-51.38,30.4-51.38c18.62,0,33.3,3.75,39.11,21.65.66,2,.3,4.19-1.61,5.15l-10.89,4.24a3.61,3.61,0,0,1-5-1.5c-3.21-7.45-10.13-11.75-16.94-11.75-18.21,0-16.46,13.83-16.46,33.59,0,19.91-2.6,33.6,18,33.6,13.81,0,14.17-10.3,16.12-17.75a3.75,3.75,0,0,0-3.63-4.71l-14.75,0a3.75,3.75,0,0,1-3.75-3.76v-8.58A3.75,3.75,0,0,1,291.12,158.15Z"/><path class="cls-2" d="M174.74,3.07h-52.2a3.75,3.75,0,0,0-3.75,3.75V111.64A3.76,3.76,0,0,1,115,115.4H3.93a3.75,3.75,0,0,0-3.75,3.75v10.07A3.75,3.75,0,0,0,3.93,133H24.6a3.75,3.75,0,0,1,3.76,3.75v73.41a3.75,3.75,0,0,0,3.75,3.75H43.58a3.75,3.75,0,0,0,3.75-3.75V136.73A3.75,3.75,0,0,1,51.09,133h83a3.75,3.75,0,0,0,3.75-3.76v-6.44a3.42,3.42,0,0,0,.09-.79V64.59a3.75,3.75,0,0,1,3.75-3.76h19a3.75,3.75,0,0,0,3.76-3.75V48.4a5,5,0,0,0-5-5H141.65a3.75,3.75,0,0,1-3.75-3.75V24.4a3.75,3.75,0,0,1,3.75-3.75h33.09a3.76,3.76,0,0,0,3.76-3.76V6.82A3.75,3.75,0,0,0,174.74,3.07Z"/><path class="cls-2" d="M167.33,142.48c-.74-1.1-1.68-1.9-2.12-1.9-1.31,0-1.69.92-1.69,2.77l.31,64.91c0,4.53-2.54,7.07-7.07,7.07H146.53a3.75,3.75,0,0,1-3.75-3.76V134.74c0-15.29,4.83-19.28,17.89-19.28,9.38,0,11.32,2.46,22.21,17l43,55.06c.18.23.39.52.58.74,1.12,1.28,1.82,1.89,2.25,1.89,1.31,0,1.56-.92,1.56-2.76L230,122.53c0-4.54,2.54-7.07,7.07-7.07h10.23a3.75,3.75,0,0,1,3.75,3.75v76.84c0,15.28-4.84,19.28-17.9,19.28-9.35,0-18.66-12.82-22.1-17h0Z"/><path class="cls-2" d="M333.21,163c0-31.06,23.15-52.34,53.06-52.34,30.2,0,53.06,21.28,53.06,52.34s-22.86,52.35-53.06,52.35C356.36,215.33,333.21,194.05,333.21,163Zm86,0c0-20.13-13.8-34.22-32.93-34.22-18.84,0-32.93,14.09-32.93,34.22s14.09,34.23,32.93,34.23C405.4,197.21,419.2,183.12,419.2,163Z"/></g></g></svg>