<svg xmlns="http://www.w3.org/2000/svg" xmlns:xlink="http://www.w3.org/1999/xlink" viewBox="0 0 449.34 169.43"><defs><style>.cls-1{fill:#ff8515;}.cls-2{fill:#4be394;}.cls-3{fill:url(#Degradado_sin_nombre_409);}.cls-4{fill:url(#Degradado_sin_nombre_411);}.cls-5{fill:url(#Degradado_sin_nombre_391);}.cls-6{fill:url(#Degradado_sin_nombre_400);}</style><linearGradient id="Degradado_sin_nombre_409" x1="18.79" y1="173.76" x2="134.01" y2="98.87" gradientUnits="userSpaceOnUse"><stop offset="0"/><stop offset="0.09" stop-color="#381d05"/><stop offset="0.2" stop-color="#713b09"/><stop offset="0.3" stop-color="#9c510d"/><stop offset="0.37" stop-color="#b55f0f"/><stop offset="0.42" stop-color="#bf6410"/><stop offset="0.46" stop-color="#bb6210"/><stop offset="0.51" stop-color="#af5b0f"/><stop offset="0.56" stop-color="#9a510d"/><stop offset="0.61" stop-color="#7e420b"/><stop offset="0.66" stop-color="#592f07"/><stop offset="0.71" stop-color="#2c1704"/><stop offset="0.75"/></linearGradient><linearGradient id="Degradado_sin_nombre_411" x1="70.6" y1="54.44" x2="158.06" y2="1.95" gradientUnits="userSpaceOnUse"><stop offset="0"/><stop offset="0.03" stop-color="#06110b"/><stop offset="0.11" stop-color="#17452d"/><stop offset="0.2" stop-color="#25714a"/><stop offset="0.28" stop-color="#309360"/><stop offset="0.36" stop-color="#38ab70"/><stop offset="0.43" stop-color="#3dba7a"/><stop offset="0.49" stop-color="#3fbf7d"/><stop offset="0.54" stop-color="#3cb778"/><stop offset="0.63" stop-color="#35a069"/><stop offset="0.73" stop-color="#297b51"/><stop offset="0.85" stop-color="#18482f"/><stop offset="0.99" stop-color="#020705"/><stop offset="1"/></linearGradient><linearGradient id="Degradado_sin_nombre_391" x1="-49.87" y1="178.75" x2="159.94" y2="31.84" gradientUnits="userSpaceOnUse"><stop offset="0.31" stop-color="#ff8515"/><stop offset="0.49" stop-color="#ff8515"/><stop offset="0.52" stop-color="#f28c1e"/><stop offset="0.58" stop-color="#cf9e37"/><stop offset="0.66" stop-color="#97bb5f"/><stop offset="0.76" stop-color="#4be394"/></linearGradient><linearGradient id="Degradado_sin_nombre_400" x1="54.86" y1="113.84" x2="198.9" y2="12.98" gradientUnits="userSpaceOnUse"><stop offset="0.02" stop-color="#ff8515"/><stop offset="0.1" stop-color="#d79a31"/><stop offset="0.2" stop-color="#a6b454"/><stop offset="0.3" stop-color="#7ec870"/><stop offset="0.39" stop-color="#62d784"/><stop offset="0.46" stop-color="#51e090"/><stop offset="0.52" stop-color="#4be394"/><stop offset="0.81" stop-color="#4be394"/></linearGradient></defs><g id="Capa_2" data-name="Capa 2"><g id="Capa_4" data-name="Capa 4"><path class="cls-1" d="M209.33,78.31V28.6a2.05,2.05,0,0,1,2-2.05h57.19a2.05,2.05,0,0,1,2.05,2.05V34a2.05,2.05,0,0,1-2.05,2h-46.9a2,2,0,0,0-2,2.05v8.7a2.05,2.05,0,0,0,2,2.05h26.39a2.05,2.05,0,0,1,2.05,2v5.12a2,2,0,0,1-2.05,2.05H221.67a2.05,2.05,0,0,0-2,2v8.63a2.05,2.05,0,0,0,2,2h43.87a2.05,2.05,0,0,1,2,2v5.43a2.05,2.05,0,0,1-2,2H211.38A2.05,2.05,0,0,1,209.33,78.31Z"/><path class="cls-1" d="M300,78.46V73a2.05,2.05,0,0,1,2-2l19.81-.13a2.06,2.06,0,0,0,2-2.06V60.15a2.05,2.05,0,0,0-2-2h-15a2,2,0,0,1-2.06-2.05V50.63a2.05,2.05,0,0,1,2.06-2.05h15a1.82,1.82,0,0,0,2-1.75v-8.7a2,2,0,0,0-2-2.05h-9.32a2.05,2.05,0,0,1-2-2V28.6a2.05,2.05,0,0,1,2-2.05h19.61a2.05,2.05,0,0,1,2.05,2.05V78.32a2.05,2.05,0,0,1-2,2.05l-30.08.14A2,2,0,0,1,300,78.46Z"/><path class="cls-1" d="M337,52.62c0-16.47,2.25-27.75,18.33-27.75,10,0,15.72,4.3,18.52,11.54a2.73,2.73,0,0,1-1.26,3.4l-4.44,2.35a2.71,2.71,0,0,1-3.82-1.5c-1.43-4-3.59-6.18-9.15-6.18-9.83,0-8.67,7.47-8.67,18.14s-1.32,18.14,9,18.14c6,0,8.43-2.5,10-7.3a2.69,2.69,0,0,1,3.75-1.56L373.52,64a2.71,2.71,0,0,1,1.36,3.38c-3.39,8.88-8.68,13-19.09,13C339.25,80.36,337,69.08,337,52.62Z"/><path class="cls-1" d="M392.51,78.31V38.2a2,2,0,0,0-2.05-2.05H379.17a2.05,2.05,0,0,1-2.05-2V28.6a2.05,2.05,0,0,1,2.05-2.05h67.67a2,2,0,0,1,2.05,2.05v5.5a2,2,0,0,1-2.05,2H404.93a2.05,2.05,0,0,0-2.05,2.05V78.31a2.05,2.05,0,0,1-2.05,2h-6.26A2.05,2.05,0,0,1,392.51,78.31Z"/><path class="cls-1" d="M408,60.2c0-12,8.91-20.15,20.43-20.15s20.43,8.19,20.43,20.15-8.8,20.16-20.43,20.16S408,72.16,408,60.2Zm33.11,0c0-7.75-5.32-13.18-12.68-13.18s-12.68,5.43-12.68,13.18,5.43,13.18,12.68,13.18S441.14,68,441.14,60.2Z"/><path class="cls-2" d="M272.64,141l-2.25-6.75a1.57,1.57,0,0,0-1.5-1.08H255.06a1.58,1.58,0,0,0-1.5,1.08L251.31,141a1.57,1.57,0,0,1-1.5,1.08h-5.12A1.58,1.58,0,0,1,243.2,140l13.8-37.8a1.58,1.58,0,0,1,1.49-1h7A1.59,1.59,0,0,1,267,102.2L280.75,140a1.57,1.57,0,0,1-1.49,2.1h-5.12A1.58,1.58,0,0,1,272.64,141Zm-12.19-27.77L257,123.93a1.59,1.59,0,0,0,1.51,2.07h6.89a1.58,1.58,0,0,0,1.5-2.07l-3.46-10.68A1.58,1.58,0,0,0,260.45,113.25Z"/><path class="cls-2" d="M368.37,111.27h17.88a2.05,2.05,0,0,1,2.05,2v.11c0,17.51-1.88,28.61-18.77,28.61s-20-11.41-20-28.07.34-28.07,16.61-28.07c10.17,0,18.2,2,21.37,11.83a2.19,2.19,0,0,1-.88,2.81l-5.95,2.32A2,2,0,0,1,378,102a10.28,10.28,0,0,0-9.25-6.42c-9.95,0-9,7.56-9,18.35s-1.42,18.36,9.84,18.36c7.54,0,7.74-5.63,8.8-9.7a2,2,0,0,0-2-2.57h-8.06a2.05,2.05,0,0,1-2.05-2.06v-4.69A2.05,2.05,0,0,1,368.37,111.27Z"/><path class="cls-2" d="M304.79,26.55H276.27a2.05,2.05,0,0,0-2,2.05V85.87a2,2,0,0,1-2.05,2H211.48a2,2,0,0,0-2,2v5.5a2,2,0,0,0,2,2h11.29a2.05,2.05,0,0,1,2,2v40.11a2.05,2.05,0,0,0,2.05,2h6.27a2.05,2.05,0,0,0,2.05-2V99.57a2.05,2.05,0,0,1,2.05-2h45.33a2.05,2.05,0,0,0,2.05-2V92a2,2,0,0,0,.05-.43V60.16a2,2,0,0,1,2.05-2h10.36a2.05,2.05,0,0,0,2.05-2.06V51.31a2.74,2.74,0,0,0-2.73-2.73h-9.68a2,2,0,0,1-2.05-2V38.2a2,2,0,0,1,2.05-2.05h18.07a2.05,2.05,0,0,0,2.06-2V28.6A2.05,2.05,0,0,0,304.79,26.55Z"/><path class="cls-2" d="M300.74,102.71c-.4-.6-.91-1-1.16-1-.71,0-.92.51-.92,1.51l.17,35.47a3.5,3.5,0,0,1-3.86,3.86h-5.59a2.05,2.05,0,0,1-2.05-2v-42c0-8.35,2.64-10.53,9.78-10.53,5.12,0,6.18,1.34,12.13,9.32l23.51,30.07c.1.13.21.29.31.41.61.7,1,1,1.24,1,.71,0,.84-.5.84-1.51L335,91.81A3.49,3.49,0,0,1,338.84,88h5.59a2.05,2.05,0,0,1,2.05,2v42c0,8.36-2.65,10.54-9.78,10.54-5.11,0-10.2-7-12.08-9.26h0Z"/><path class="cls-2" d="M391.37,113.91c0-17,12.64-28.59,29-28.59,16.5,0,29,11.62,29,28.59s-12.49,28.6-29,28.6C404,142.51,391.37,130.88,391.37,113.91Zm47,0c0-11-7.54-18.69-18-18.69-10.29,0-18,7.69-18,18.69s7.7,18.7,18,18.7C430.8,132.61,438.34,124.91,438.34,113.91Z"/><path class="cls-3" d="M85.34,100.85s-23.81,11.58-41.31-2C35,109.51,24.11,125.47,59.1,158.35c16,11.5,65,12.23,77.91-4.13C115.15,154.55,74.49,156.33,85.34,100.85Z"/><path class="cls-4" d="M98.14,67.45s23.81-11.59,41.31,2c9.07-10.69,19.92-26.65-15.07-59.53-16-11.5-64.95-12.23-77.91,4.13C68.33,13.75,109,12,98.14,67.45Z"/><path class="cls-5" d="M.74,87.83C-6.18,26.25,37.25,11.11,49.93,9.18c13.43-2,52.05,6.4,51.68,41.08-.33,30.48-25,39.05-29.63,40.16-.54.13-8.53,1.71-8.69,1.74-9.63,2-23.84,5.5-26.91,22.78-2.11,11.87,11.88,35.2,30.62,43.43,16.9,7.43,36.65,8,59.73,3C102.11,177.08,13.26,177.87.74,87.83Z"/><path class="cls-6" d="M180.13,81.6c6.92,61.58-36.51,76.72-49.18,78.65-13.44,2-52.06-6.4-51.69-41.08.33-30.48,25-39,29.64-40.16.54-.13,8.52-1.7,8.68-1.74,9.63-2,23.85-5.5,26.91-22.78,2.11-11.86-11.88-35.2-30.61-43.43-16.91-7.43-36.65-8-59.74-3C78.77-7.65,167.62-8.44,180.13,81.6Z"/></g></g></svg>