<svg width="55" height="56" viewBox="0 0 55 56" fill="none" xmlns="http://www.w3.org/2000/svg">
<path d="M28.5524 11.4497H33.9494C34.0073 11.688 34.0524 11.9293 34.0843 12.1725C34.2488 14.0698 35.1074 15.8368 36.4922 17.1282C37.8771 18.4195 39.6886 19.1424 41.5726 19.1555V24.2973C41.3202 24.3802 41.0553 24.4172 40.7901 24.4064C39.5347 24.2662 38.2904 24.0384 37.0661 23.7245C36.0095 23.3134 34.9817 22.8304 33.9898 22.2788V22.9607C33.9898 25.6884 33.9898 28.498 33.9898 31.2666C34.0033 32.3935 33.9312 33.5197 33.774 34.6353C33.5373 36.4976 32.8327 38.2675 31.7273 39.7764C30.6219 41.2853 29.1526 42.4829 27.4595 43.2549C26.4645 43.6248 25.4457 43.9256 24.4102 44.1551H22.5347C22.4561 44.1174 22.3749 44.0855 22.2918 44.0596C20.391 43.8153 18.6054 43.0035 17.1633 41.728C15.7212 40.4526 14.6882 38.7714 14.1963 36.8994C13.9698 36.0847 13.7985 35.2553 13.6836 34.4171V32.8214C13.832 32.0713 13.94 31.3212 14.1558 30.5847C14.7639 28.6181 15.9388 26.8796 17.53 25.5919C19.1212 24.3042 21.0564 23.5257 23.0879 23.3562C23.695 23.2607 24.3022 23.2335 24.9499 23.1789C24.9499 24.9519 24.9499 26.5886 24.9499 28.2388C24.9499 28.6344 24.7475 28.6889 24.4236 28.7844C23.3891 29.0241 22.3743 29.3432 21.3878 29.7391C20.6281 30.0285 19.9753 30.548 19.5189 31.2267C19.0624 31.9054 18.8245 32.7101 18.8377 33.5306C18.7805 34.4611 18.9957 35.3881 19.4564 36.1958C19.9171 37.0035 20.6029 37.6561 21.4283 38.0723C22.183 38.544 23.0597 38.7778 23.9465 38.7438C24.8332 38.7098 25.6898 38.4095 26.407 37.8813C26.9441 37.4927 27.3944 36.9945 27.7291 36.4189C28.0638 35.8433 28.2753 35.2032 28.35 34.5399C28.5113 33.1824 28.5789 31.8152 28.5524 30.4483C28.5524 24.3927 28.5524 18.3327 28.5524 12.268C28.5928 11.9816 28.5658 11.7225 28.5524 11.4497Z" fill="#93EEBF"/>
</svg>
