<svg xmlns="http://www.w3.org/2000/svg" viewBox="0 0 60 81.36"><g id="Capa_2" data-name="Capa 2"><g id="Capa_3" data-name="Capa 3"><path d="M47.3,3A9.71,9.71,0,0,1,57,12.7v56a9.71,9.71,0,0,1-9.7,9.7H12.7A9.71,9.71,0,0,1,3,68.66v-56A9.71,9.71,0,0,1,12.7,3H47.3m0-3H12.7A12.71,12.71,0,0,0,0,12.7v56a12.71,12.71,0,0,0,12.7,12.7H47.3A12.71,12.71,0,0,0,60,68.66v-56A12.71,12.71,0,0,0,47.3,0Z"/><path d="M50.05,27.87C47.29,8.62,27.64,8.79,22.19,12.15c5.11-1.07,9.47-1,13.21.64,4.14,1.76,7.24,6.75,6.77,9.29a5.77,5.77,0,0,1-.84,2.14c-2.78-1.93-6.49-1.29-9-.46a9.68,9.68,0,0,0,.37-2.59c.08-7.41-8.46-9.22-11.43-8.78C18.46,12.8,8.85,16,10.38,29.21a22.58,22.58,0,0,0,2.81,8.33l13.05,28.1c-4.35.84-7.39,3-7.39,5.72,0,3.41,4.94,6.09,11.26,6.09s11.25-2.68,11.25-6.09c0-2.65-3-4.85-7.3-5.7l13.39-26a12.89,12.89,0,0,0,2-3.88l.06-.1a1.17,1.17,0,0,0,.1-.41A19,19,0,0,0,50.05,27.87ZM24.21,30.13l1.92-.37a9.21,9.21,0,0,0,4.94-3.37c1.56-.71,5.89-2.37,8.79-.73A10.31,10.31,0,0,1,36.22,27l-1.92.37A9.09,9.09,0,0,0,29.14,31c-4.23,1.62-6.71.84-7.94,0A12.43,12.43,0,0,1,24.21,30.13ZM39.36,71.36c0,1.93-3.8,4.09-9.25,4.09s-9.26-2.16-9.26-4.09c0-1.55,2.46-3.25,6.26-3.85l2,4.27a1,1,0,0,0,.89.58h0a1,1,0,0,0,.89-.54l2.22-4.31C36.91,68.12,39.36,69.81,39.36,71.36ZM29.22,67.3l.89,0,.86,0-.92,1.79ZM32,65.36c-.61,0-1.23-.08-1.86-.08s-1.21,0-1.8.08L17.79,42.71c7,5.26,16.85,4.44,20.45,2.22-5.1,1.07-9.47,1-13.21-.64-4.14-1.76-7.23-6.75-6.77-9.29a5.46,5.46,0,0,1,1.26-2.68A7.92,7.92,0,0,0,24.62,34a13.33,13.33,0,0,0,3.45-.51,10.1,10.1,0,0,0-.32,2.45c-.09,7.41,8.45,9.22,11.43,8.78a13.06,13.06,0,0,0,4.23-1.52Z"/></g></g></svg>