<svg width="57" height="58" viewBox="0 0 57 58" fill="none" xmlns="http://www.w3.org/2000/svg">
<path fill-rule="evenodd" clip-rule="evenodd" d="M44.3271 27.2655C44.3271 35.9368 37.3394 42.9428 28.7042 42.9428C25.9773 42.9428 23.4208 42.2537 21.1484 40.9903L12.5132 43.7467L15.3537 35.3626C13.9334 33.0081 13.1381 30.2517 13.1381 27.2655C13.0813 18.5943 20.069 11.5883 28.7042 11.5883C37.3394 11.5883 44.3271 18.5943 44.3271 27.2655ZM28.7042 14.115C21.4893 14.115 15.581 20.0299 15.581 27.2655C15.581 30.1368 16.4899 32.8358 18.0806 34.9606L16.4331 39.8418L21.4893 38.2339C23.5913 39.6121 26.0341 40.416 28.7042 40.416C35.9192 40.416 41.8275 34.5012 41.8275 27.2655C41.8275 20.0299 35.9192 14.115 28.7042 14.115ZM36.6009 30.8834C36.4873 30.7111 36.26 30.6537 35.8624 30.424C35.4647 30.2517 33.5899 29.2754 33.2491 29.1606C32.9082 29.0457 32.6241 28.9883 32.3969 29.3329C32.1697 29.7348 31.4311 30.5962 31.2039 30.8259C30.9766 31.0556 30.7494 31.1131 30.3517 30.9408C29.954 30.7685 28.761 30.3665 27.2839 29.0457C26.1477 28.0121 25.3524 26.7487 25.182 26.4042C24.9547 26.0022 25.182 25.8299 25.3524 25.6002C25.5228 25.4279 25.7501 25.1408 25.9205 24.9111C26.0909 24.6814 26.1477 24.5091 26.3182 24.2794C26.4318 24.0497 26.375 23.82 26.2614 23.5903C26.1477 23.418 25.4092 21.523 25.0683 20.719C24.7275 19.9725 24.4434 20.0873 24.2162 20.0873C23.9889 20.0873 23.7617 20.0299 23.4776 20.0299C23.2504 20.0299 22.7959 20.1447 22.455 20.4893C22.1142 20.8913 21.0916 21.8101 21.0916 23.7051C21.0916 25.6002 22.455 27.4378 22.6823 27.6675C22.8527 27.8972 25.3524 31.917 29.2155 33.4675C33.1354 35.018 33.1354 34.5012 33.8172 34.4438C34.4989 34.3863 36.0896 33.5249 36.3736 32.6061C36.6577 31.8022 36.6577 30.9982 36.6009 30.8834Z" fill="#93EEBF"/>
</svg>
