<svg width="58" height="58" viewBox="0 0 58 58" fill="none" xmlns="http://www.w3.org/2000/svg">
<path d="M39.4038 43.6319H17.759C14.9752 43.6319 12.646 41.3349 12.646 38.4636V32.721C12.646 29.9071 14.9184 27.5527 17.759 27.5527H39.4038C42.1875 27.5527 44.5168 29.8497 44.5168 32.721V38.521C44.4599 41.3349 42.1875 43.6319 39.4038 43.6319ZM22.8719 29.5052H20.9403H18.3839H17.134V30.7685H19.0656V39.7844H20.9972V30.7685H22.9287V29.5052H22.8719ZM27.3031 32.0319H26.0533V38.0616C25.5988 38.1764 24.6898 39.0952 24.1217 37.8319V32.0319H22.8719V38.4636C22.8719 38.4636 22.8151 40.2438 24.1217 40.416C24.1217 40.416 24.8603 40.5883 26.0533 39.325V40.416H27.3031V32.0319ZM30.8254 32.0319C30.4845 32.0319 30.2005 32.1467 29.8596 32.4339V29.4477H28.6098V39.7269C28.6098 39.7269 30.3709 40.3586 30.8254 40.3586C32.0184 40.3586 33.041 38.521 33.041 36.1665C33.041 33.8121 32.0184 32.0319 30.8254 32.0319ZM36.2224 32.0319C34.8021 32.0319 33.6659 33.8695 33.6659 36.224C33.6659 38.5784 34.8021 40.416 36.2224 40.416C37.4154 40.416 38.438 39.0378 38.7221 37.2002H36.9041C36.7905 38.2913 36.7337 39.1527 36.2792 39.1527C35.7679 39.1527 35.7111 38.0042 35.6543 36.5685H36.2792H37.529H38.7789C38.7789 36.4537 38.7789 36.3962 38.7789 36.224C38.7789 33.9269 37.6427 32.0319 36.2224 32.0319ZM36.2224 33.3527C36.6769 33.3527 36.7337 34.2141 36.8473 35.3052H35.6543C35.7679 34.0992 35.8247 33.3527 36.2224 33.3527ZM30.4845 38.4636C29.9732 38.4636 29.8596 37.8319 29.8596 36.224C29.8596 34.616 29.9732 33.3527 30.4845 33.3527C30.9958 33.3527 31.1095 34.616 31.1095 36.224C31.1095 37.8319 30.9958 38.4636 30.4845 38.4636ZM35.5975 23.8774C34.4613 25.1408 33.6659 24.9685 33.6659 24.9685C32.3025 24.8537 32.4161 23.016 32.4161 23.016V15.9527H34.2908V23.0735C34.6317 23.4754 35.143 23.418 35.5407 23.3032V15.9527H37.4722V24.9685H35.5407V23.8774H35.5975ZM28.2689 24.9685C26.6782 24.9685 25.4284 22.7863 25.4284 20.1448C25.4284 17.5032 26.6782 15.321 28.2689 15.321C29.8596 15.321 31.1095 17.5032 31.1095 20.1448C31.1095 22.7863 29.8596 24.9685 28.2689 24.9685ZM28.2689 17.2735C27.7576 17.2735 27.3031 18.5368 27.3031 20.1448C27.3031 21.7527 27.7576 23.016 28.2689 23.016C28.7802 23.016 29.2347 21.7527 29.2347 20.1448C29.2347 18.5368 28.7802 17.2735 28.2689 17.2735ZM22.8719 24.9685H22.247H21.6221H20.9972V19.1685L18.3839 12.7368H20.9403L21.5653 16.5844L21.9061 17.5606L22.247 16.5844L22.8719 12.7368H25.4284L22.8719 19.1685V24.9685Z" fill="#93EEBF"/>
</svg>
