<svg width="53" height="50" viewBox="0 0 53 50" fill="none" xmlns="http://www.w3.org/2000/svg">
<path d="M35.4032 38.4499H16.4292C13.4612 38.4499 11.0762 36.2 11.0762 33.4V15.5C11.0762 12.7 13.4612 10.45 16.4292 10.45H35.4032C38.3712 10.45 40.7562 12.7 40.7562 15.5V33.4C40.7562 36.2 38.3712 38.4499 35.4032 38.4499ZM25.9162 20C23.3192 20 21.1462 22 21.1462 24.5C21.1462 27 23.2662 28.9999 25.9162 28.9999C28.5662 28.9999 30.6862 27 30.6862 24.5C30.6862 22 28.5132 20 25.9162 20ZM37.2052 13.8H32.4352V18.3H37.2052V13.8ZM37.7882 21.65H33.7072C34.0782 22.55 34.2372 23.45 34.2372 24.45C34.2372 28.75 30.4742 32.2999 25.9162 32.2999C21.3582 32.2999 17.5952 28.75 17.5952 24.45C17.5952 23.45 17.7542 22.55 18.1252 21.65H14.0442V31.7499C14.0442 33.9499 15.8992 35.65 18.1782 35.65H33.6012C35.9332 35.65 37.7352 33.9 37.7352 31.7499V21.65H37.7882Z" fill="#17452D"/>
</svg>
