<svg width="50" height="48" viewBox="0 0 50 48" fill="none" xmlns="http://www.w3.org/2000/svg">
<path d="M46.3798 36.4591C46.4033 36.3898 46.4192 36.3166 46.4192 36.2396V10.8281C46.4192 10.7506 46.4033 10.6769 46.3793 10.6071C46.3759 10.5975 46.3739 10.588 46.3699 10.5784C46.338 10.4966 46.2912 10.4229 46.2324 10.3584C46.2284 10.3541 46.2279 10.3488 46.2239 10.3445C46.2214 10.3421 46.2184 10.3412 46.2159 10.3388C46.1531 10.2747 46.0789 10.223 45.9957 10.1843C45.9892 10.1814 45.9842 10.1776 45.9778 10.1747C45.899 10.1407 45.8134 10.1216 45.7232 10.1159C45.7142 10.1154 45.7057 10.1135 45.6968 10.1135C45.6883 10.113 45.6808 10.1111 45.6723 10.1111H4.2166C4.20813 10.1111 4.20016 10.113 4.19169 10.1135C4.18372 10.114 4.17575 10.1154 4.16778 10.1159C4.0766 10.1216 3.98941 10.1412 3.90969 10.1757C3.90471 10.1776 3.90072 10.1809 3.89574 10.1828C3.81104 10.2216 3.7358 10.2742 3.67253 10.3392C3.67004 10.3416 3.66705 10.3421 3.66456 10.3445C3.66057 10.3483 3.66007 10.3536 3.65609 10.3579C3.59729 10.4225 3.54996 10.4966 3.51808 10.5784C3.51409 10.588 3.5121 10.5975 3.50861 10.6076C3.48469 10.6774 3.46875 10.7511 3.46875 10.8286V36.2405C3.46875 36.319 3.48519 36.3936 3.50961 36.4644C3.51309 36.474 3.51509 36.4831 3.51857 36.4926C3.55096 36.5749 3.59879 36.649 3.65808 36.7136C3.66157 36.7174 3.66256 36.7222 3.66605 36.726C3.66904 36.7294 3.67303 36.7313 3.67651 36.7347C3.70093 36.759 3.72783 36.7806 3.75573 36.8016C3.76819 36.8107 3.77915 36.8217 3.79211 36.8303C3.82499 36.8523 3.86036 36.87 3.89673 36.8863C3.9057 36.8901 3.91367 36.8963 3.92264 36.8997C4.01282 36.9365 4.11197 36.9575 4.2161 36.9575H45.6714C45.7755 36.9575 45.8746 36.937 45.9648 36.8997C45.9788 36.8939 45.9917 36.8853 46.0052 36.8786C46.0361 36.8638 46.067 36.8485 46.0954 36.8298C46.1103 36.8198 46.1238 36.8069 46.1382 36.7959C46.1636 36.7763 46.1885 36.7567 46.2104 36.7342C46.2144 36.7303 46.2189 36.7275 46.2229 36.7236C46.2269 36.7193 46.2279 36.7136 46.2319 36.7093C46.2902 36.6452 46.337 36.5715 46.3689 36.4902C46.3739 36.4797 46.3764 36.4697 46.3798 36.4591ZM4.96396 12.4553L17.5429 23.4858L4.96396 34.6042V12.4553ZM30.7457 22.9453C30.6939 22.9778 30.6391 23.0051 30.5957 23.051C30.5793 23.0682 30.5738 23.0907 30.5593 23.1089L24.9442 28.0326L6.14278 11.5456H43.7457L30.7457 22.9453ZM18.651 24.4572L24.44 29.5336C24.583 29.6589 24.7634 29.7216 24.9442 29.7216C25.1251 29.7216 25.3054 29.6589 25.4479 29.5336L31.1652 24.5204L43.7422 35.5226H6.13182L18.651 24.4572ZM32.2738 23.5484L44.9245 12.4553V34.6157L32.2738 23.5484Z" fill="#17452D"/>
</svg>
