<svg width="51" height="49" viewBox="0 0 51 49" fill="none" xmlns="http://www.w3.org/2000/svg">
<path d="M26.3806 9.80005H31.4806C31.5354 10.0141 31.5779 10.2308 31.6081 10.4493C31.7635 12.1534 32.5749 13.7405 33.8835 14.9004C35.1921 16.0602 36.904 16.7095 38.6843 16.7213V21.3395C38.4458 21.4141 38.1954 21.4472 37.9448 21.4375C36.7585 21.3117 35.5827 21.107 34.4258 20.825C33.4274 20.4559 32.4561 20.0221 31.5188 19.5265V20.139C31.5188 22.589 31.5188 25.1125 31.5188 27.5993C31.5316 28.6114 31.4634 29.623 31.3148 30.625C31.0912 32.2977 30.4253 33.8874 29.3808 35.2427C28.3362 36.598 26.9478 37.6736 25.3478 38.367C24.4076 38.6992 23.4449 38.9694 22.4663 39.1755H20.6941C20.6198 39.1417 20.5431 39.113 20.4646 39.0898C18.6683 38.8703 16.981 38.1412 15.6183 36.9956C14.2556 35.85 13.2794 34.34 12.8146 32.6585C12.6006 31.9268 12.4387 31.1819 12.3301 30.429V28.9958C12.4703 28.322 12.5723 27.6483 12.7763 26.9868C13.351 25.2204 14.4612 23.659 15.9648 22.5023C17.4685 21.3457 19.2972 20.6465 21.2168 20.4943C21.7906 20.4085 22.3643 20.384 22.9763 20.335C22.9763 21.9275 22.9763 23.3975 22.9763 24.8798C22.9763 25.235 22.7851 25.284 22.4791 25.3698C21.5015 25.5851 20.5425 25.8718 19.6103 26.2273C18.8924 26.4872 18.2756 26.9539 17.8442 27.5635C17.4129 28.173 17.1881 28.8958 17.2006 29.6328C17.1465 30.4686 17.3498 31.3012 17.7852 32.0266C18.2205 32.7521 18.8686 33.3383 19.6486 33.712C20.3618 34.1358 21.1902 34.3458 22.0282 34.3152C22.8661 34.2847 23.6756 34.015 24.3533 33.5405C24.8608 33.1915 25.2864 32.744 25.6026 32.227C25.9189 31.71 26.1188 31.1351 26.1893 30.5393C26.3418 29.32 26.4057 28.0921 26.3806 26.8643C26.3806 21.4253 26.3806 15.9822 26.3806 10.535C26.4188 10.2778 26.3933 10.045 26.3806 9.80005Z" fill="#17452D"/>
</svg>
