<svg width="75" height="68" viewBox="0 0 75 68" fill="none" xmlns="http://www.w3.org/2000/svg">
<path fill-rule="evenodd" clip-rule="evenodd" d="M58.5 32.1641C58.5 42.4321 49.275 50.7281 37.875 50.7281C34.275 50.7281 30.9 49.9121 27.9 48.4161L16.5 51.6801L20.25 41.7521C18.375 38.9641 17.325 35.7001 17.325 32.1641C17.25 21.8961 26.475 13.6001 37.875 13.6001C49.275 13.6001 58.5 21.8961 58.5 32.1641ZM37.875 16.5921C28.35 16.5921 20.55 23.5961 20.55 32.1641C20.55 35.5641 21.75 38.7601 23.85 41.2761L21.675 47.0561L28.35 45.1521C31.125 46.7841 34.35 47.7361 37.875 47.7361C47.4 47.7361 55.2 40.7321 55.2 32.1641C55.2 23.5961 47.4 16.5921 37.875 16.5921ZM48.3 36.4481C48.15 36.2441 47.85 36.1761 47.325 35.9041C46.8 35.7001 44.325 34.5441 43.875 34.4081C43.425 34.2721 43.05 34.2041 42.75 34.6121C42.45 35.0881 41.475 36.1081 41.175 36.3801C40.875 36.6521 40.575 36.7201 40.05 36.5161C39.525 36.3121 37.95 35.8361 36 34.2721C34.5 33.0481 33.45 31.5521 33.225 31.1441C32.925 30.6681 33.225 30.4641 33.45 30.1921C33.675 29.9881 33.975 29.6481 34.2 29.3761C34.425 29.1041 34.5 28.9001 34.725 28.6281C34.875 28.3561 34.8 28.0841 34.65 27.8121C34.5 27.6081 33.525 25.3641 33.075 24.4121C32.625 23.5281 32.25 23.6641 31.95 23.6641C31.65 23.6641 31.35 23.5961 30.975 23.5961C30.675 23.5961 30.075 23.7321 29.625 24.1401C29.175 24.6161 27.825 25.7041 27.825 27.9481C27.825 30.1921 29.625 32.3681 29.925 32.6401C30.15 32.9121 33.45 37.6721 38.55 39.5081C43.725 41.3441 43.725 40.7321 44.625 40.6641C45.525 40.5961 47.625 39.5761 48 38.4881C48.375 37.5361 48.375 36.5841 48.3 36.4481Z" fill="#17452D"/>
</svg>
