<svg width="53" height="51" viewBox="0 0 53 51" fill="none" xmlns="http://www.w3.org/2000/svg">
<path d="M38.3694 41.1032H14.5772C11.5173 41.1032 8.95703 38.6996 8.95703 35.6951V29.6861C8.95703 26.7416 11.4549 24.2779 14.5772 24.2779H38.3694C41.4293 24.2779 43.9896 26.6815 43.9896 29.6861V35.7552C43.9272 38.6996 41.4293 41.1032 38.3694 41.1032ZM20.1974 26.321H18.0742H15.2641H13.8903V27.643H16.0135V37.0771H18.1367V27.643H20.2599V26.321H20.1974ZM25.0683 28.965H23.6944V35.2744C23.1949 35.3946 22.1957 36.3561 21.5713 35.0341V28.965H20.1974V35.6951C20.1974 35.6951 20.135 37.5579 21.5713 37.7381C21.5713 37.7381 22.3831 37.9184 23.6944 36.5964V37.7381H25.0683V28.965ZM28.94 28.965C28.5653 28.965 28.2531 29.0851 27.8784 29.3856V26.2609H26.5045V37.0171C26.5045 37.0171 28.4404 37.678 28.94 37.678C30.2513 37.678 31.3754 35.7552 31.3754 33.2915C31.3754 30.8278 30.2513 28.965 28.94 28.965ZM34.8724 28.965C33.3112 28.965 32.0623 30.8879 32.0623 33.3516C32.0623 35.8153 33.3112 37.7381 34.8724 37.7381C36.1838 37.7381 37.3078 36.296 37.6201 34.3731H35.6218C35.4969 35.5148 35.4344 36.4162 34.9348 36.4162C34.3728 36.4162 34.3104 35.2143 34.2479 33.7121H34.9348H36.3087H37.6825C37.6825 33.5919 37.6825 33.5318 37.6825 33.3516C37.6825 30.9479 36.4336 28.965 34.8724 28.965ZM34.8724 30.347C35.372 30.347 35.4344 31.2484 35.5593 32.3901H34.2479C34.3728 31.1282 34.4353 30.347 34.8724 30.347ZM28.5653 35.6951C28.0033 35.6951 27.8784 35.0341 27.8784 33.3516C27.8784 31.669 28.0033 30.347 28.5653 30.347C29.1273 30.347 29.2522 31.669 29.2522 33.3516C29.2522 35.0341 29.1273 35.6951 28.5653 35.6951ZM34.1855 20.4322C32.9366 21.7541 32.0623 21.5739 32.0623 21.5739C30.5636 21.4537 30.6885 19.5308 30.6885 19.5308V12.1397H32.7492V19.5909C33.1239 20.0115 33.6859 19.9514 34.123 19.8313V12.1397H36.2462V21.5739H34.123V20.4322H34.1855ZM26.1299 21.5739C24.3814 21.5739 23.0075 19.2904 23.0075 16.5263C23.0075 13.7621 24.3814 11.4787 26.1299 11.4787C27.8784 11.4787 29.2522 13.7621 29.2522 16.5263C29.2522 19.2904 27.8784 21.5739 26.1299 21.5739ZM26.1299 13.5218C25.5678 13.5218 25.0683 14.8438 25.0683 16.5263C25.0683 18.2088 25.5678 19.5308 26.1299 19.5308C26.6919 19.5308 27.1915 18.2088 27.1915 16.5263C27.1915 14.8438 26.6919 13.5218 26.1299 13.5218ZM20.1974 21.5739H19.5105H18.8236H18.1367V15.5048L15.2641 8.77466H18.0742L18.7612 12.8007L19.1358 13.8222L19.5105 12.8007L20.1974 8.77466H23.0075L20.1974 15.5048V21.5739Z" fill="#17452D"/>
</svg>
